<svg width="32" height="32" viewBox="0 0 32 32" fill="none" xmlns="http://www.w3.org/2000/svg">
<path d="M23 6V26C23 28.76 20.76 31 18 31H14C11.24 31 9 28.76 9 26V6C9 3.24 11.24 1 14 1H18C20.76 1 23 3.24 23 6Z" fill="#CFDAAA"/>
<path d="M19 20C19 21.3 18.16 22.4 17 22.82V26C17 26.55 16.55 27 16 27C15.45 27 15 26.55 15 26V22.82C13.84 22.4 13 21.3 13 20C13 18.35 14.35 17 16 17C17.65 17 19 18.35 19 20Z" fill="white"/>
<path d="M27.12 20.12C26.55 20.69 25.8 21 25 21C24.2 21 23.45 20.69 22.88 20.12L14.39 11.64C13.22 10.47 13.22 8.55998 14.39 7.38998C15.53 6.25998 17.5 6.25998 18.64 7.38998L27.12 15.88C28.29 17.05 28.29 18.95 27.12 20.12Z" fill="#84A80D"/>
</svg>
