<svg width="190" height="190" viewBox="0 0 190 190" fill="none" xmlns="http://www.w3.org/2000/svg">
<path d="M73.4986 41.5455H91.1122V145.523C91.1122 154.803 89.4077 162.687 85.9986 169.173C82.5895 175.66 77.7836 180.584 71.581 183.946C65.3783 187.308 58.063 188.989 49.6349 188.989C41.6804 188.989 34.6018 187.545 28.3991 184.656C22.1965 181.721 17.3196 177.554 13.7685 172.156C10.2173 166.759 8.44176 160.343 8.44176 152.909H25.7713C25.7713 157.028 26.7893 160.627 28.8253 163.705C30.9086 166.735 33.7495 169.102 37.348 170.807C40.9465 172.511 45.0421 173.364 49.6349 173.364C54.7012 173.364 59.0099 172.298 62.5611 170.168C66.1122 168.037 68.8111 164.912 70.6577 160.793C72.5516 156.626 73.4986 151.536 73.4986 145.523V41.5455Z" fill="url(#paint0_linear_515_938)"/>
<path d="M73.6371 147V1.54545H122.785C134.196 1.54545 143.523 3.60511 150.768 7.72443C158.059 11.7964 163.457 17.3125 166.961 24.2727C170.465 31.233 172.217 38.9981 172.217 47.5682C172.217 56.1383 170.465 63.9271 166.961 70.9347C163.505 77.9422 158.154 83.5294 150.91 87.696C143.665 91.8153 134.385 93.875 123.069 93.875H87.8416V78.25H122.501C130.313 78.25 136.587 76.9006 141.322 74.2017C146.057 71.5028 149.489 67.857 151.62 63.2642C153.798 58.6241 154.887 53.392 154.887 47.5682C154.887 41.7443 153.798 36.536 151.62 31.9432C149.489 27.3504 146.033 23.7519 141.251 21.1477C136.469 18.4962 130.124 17.1705 122.217 17.1705H91.2507V147H73.6371Z" fill="url(#paint1_linear_515_938)"/>
<defs>
<linearGradient id="paint0_linear_515_938" x1="70.5" y1="145" x2="26.5" y2="152.5" gradientUnits="userSpaceOnUse">
<stop stop-color="#31B443"/>
<stop offset="0.653846" stop-color="#8EE600"/>
</linearGradient>
<linearGradient id="paint1_linear_515_938" x1="75.5" y1="53" x2="76" y2="147" gradientUnits="userSpaceOnUse">
<stop stop-color="#E59401"/>
<stop offset="1" stop-color="#31B443"/>
</linearGradient>
</defs>
</svg>
